<svg width="15px" height="15px" viewBox="0 0 15 15" version="1.1" xmlns="http://www.w3.org/2000/svg" xmlns:xlink="http://www.w3.org/1999/xlink">
    <g id="FINAL" stroke="none" stroke-width="1" fill="none" fill-rule="evenodd">
        <g id="desktop-essai" transform="translate(-260.000000, -954.000000)" fill="#E1374C">
            <path d="M267.5,954 C266.466341,954 265.492792,954.195312 264.579327,954.585937 C263.665862,954.976565 262.869595,955.511414 262.190505,956.190505 C261.511415,956.869595 260.976564,957.665862 260.585937,958.579327 C260.195311,959.492792 260,960.466341 260,961.5 C260,962.533659 260.195311,963.507208 260.585937,964.420673 C260.976564,965.334138 261.511415,966.130405 262.190505,966.809495 C262.869595,967.488585 263.665862,968.023436 264.579327,968.414063 C265.492792,968.804689 266.466341,969 267.5,969 C268.533659,969 269.507208,968.804689 270.420673,968.414063 C271.334138,968.023436 272.130405,967.488585 272.809495,966.809495 C273.488586,966.130405 274.023435,965.334138 274.414063,964.420673 C274.804688,963.507208 275,962.533659 275,961.5 C275,960.466341 274.804688,959.492792 274.414063,958.579327 C274.023435,957.665862 273.488586,956.869595 272.809495,956.190505 C272.130405,955.511414 271.334138,954.976565 270.420673,954.585937 C269.507208,954.195312 268.533659,954 267.5,954 Z M267.5,967.269231 C266.706726,967.269231 265.958538,967.118992 265.255409,966.81851 C264.552281,966.518028 263.939305,966.106373 263.416467,965.583533 C262.893627,965.060695 262.481972,964.447719 262.18149,963.744591 C261.881008,963.041462 261.730769,962.293274 261.730769,961.5 C261.730769,960.706726 261.881008,959.958538 262.18149,959.255409 C262.481972,958.552281 262.893627,957.939305 263.416467,957.416467 C263.939305,956.893627 264.552281,956.481972 265.255409,956.181489 C265.958538,955.881009 266.706726,955.730769 267.5,955.730769 C268.293274,955.730769 269.041462,955.881009 269.744591,956.181489 C270.447719,956.481972 271.060695,956.893627 271.583533,957.416467 C272.106373,957.939305 272.518028,958.552281 272.818511,959.255409 C273.118991,959.958538 273.269231,960.706726 273.269231,961.5 C273.269231,962.293274 273.118991,963.041462 272.818511,963.744591 C272.518028,964.447719 272.106373,965.060695 271.583533,965.583533 C271.060695,966.106373 270.447719,966.518028 269.744591,966.81851 C269.041462,967.118992 268.293274,967.269231 267.5,967.269231 Z M269.663462,960.923077 L265.048077,960.923077 C264.879807,960.923077 264.741588,960.980167 264.633412,961.094352 C264.525239,961.208534 264.471154,961.343748 264.471154,961.5 C264.471154,961.656252 264.525239,961.791466 264.633412,961.905648 C264.741588,962.019833 264.879807,962.076923 265.048077,962.076923 L269.663462,962.076923 C269.819713,962.076923 269.954928,962.019833 270.06911,961.905648 C270.183295,961.791466 270.240385,961.656252 270.240385,961.5 C270.240385,961.343748 270.183295,961.208534 270.06911,961.094352 C269.954928,960.980167 269.819713,960.923077 269.663462,960.923077 Z" id="Page-1-Copy-3"></path>
        </g>
    </g>
</svg>