<svg width="15" height="15" xmlns="http://www.w3.org/2000/svg"><path d="M7.5 0a7.35 7.35 0 0 0-2.92.586c-.914.39-1.71.925-2.39 1.605A7.526 7.526 0 0 0 .587 4.579 7.35 7.35 0 0 0 0 7.5a7.35 7.35 0 0 0 .586 2.92c.39.914.925 1.71 1.605 2.39a7.526 7.526 0 0 0 2.388 1.604A7.35 7.35 0 0 0 7.5 15a7.35 7.35 0 0 0 2.92-.586 7.526 7.526 0 0 0 2.39-1.605 7.526 7.526 0 0 0 1.604-2.388A7.35 7.35 0 0 0 15 7.5a7.35 7.35 0 0 0-.586-2.92 7.526 7.526 0 0 0-1.605-2.39A7.526 7.526 0 0 0 10.421.587 7.35 7.35 0 0 0 7.5 0zm0 13.27a5.666 5.666 0 0 1-2.245-.451 5.79 5.79 0 0 1-1.839-1.235 5.79 5.79 0 0 1-1.235-1.84 5.652 5.652 0 0 1-.45-2.244c0-.793.15-1.541.45-2.245a5.79 5.79 0 0 1 1.235-1.839 5.79 5.79 0 0 1 1.84-1.235c.703-.3 1.45-.45 2.244-.45.793 0 1.541.15 2.245.45a5.79 5.79 0 0 1 1.839 1.235 5.79 5.79 0 0 1 1.235 1.84c.3.703.45 1.45.45 2.244 0 .793-.15 1.541-.45 2.245a5.79 5.79 0 0 1-1.235 1.839 5.79 5.79 0 0 1-1.84 1.235c-.703.3-1.45.45-2.244.45zm2.163-6.347H5.048a.57.57 0 0 0-.577.577.57.57 0 0 0 .577.577h4.615a.554.554 0 0 0 .406-.171.554.554 0 0 0 .171-.406.554.554 0 0 0-.17-.406.554.554 0 0 0-.407-.17z" fill="#E1374C" fill-rule="evenodd"/></svg>