<svg width="15px" height="15px" viewBox="0 0 15 15" version="1.1" xmlns="http://www.w3.org/2000/svg" xmlns:xlink="http://www.w3.org/1999/xlink">
    <g id="FINAL" stroke="none" stroke-width="1" fill="none" fill-rule="evenodd">
        <g id="desktop-essai" transform="translate(-560.000000, -922.000000)" fill="#8AD93A">
            <path d="M567.5,937 C566.466341,937 565.492792,936.804689 564.579327,936.414063 C563.665862,936.023436 562.869595,935.488585 562.190505,934.809495 C561.511415,934.130405 560.976564,933.334138 560.585937,932.420673 C560.195311,931.507208 560,930.533659 560,929.5 C560,928.466341 560.195311,927.492792 560.585937,926.579327 C560.976564,925.665862 561.511415,924.869595 562.190505,924.190505 C562.869595,923.511414 563.665862,922.976565 564.579327,922.585937 C565.492792,922.195312 566.466341,922 567.5,922 C568.533659,922 569.507208,922.195312 570.420673,922.585937 C571.334138,922.976565 572.130405,923.511414 572.809495,924.190505 C573.488586,924.869595 574.023435,925.665862 574.414063,926.579327 C574.804688,927.492792 575,928.466341 575,929.5 C575,930.533659 574.804688,931.507208 574.414063,932.420673 C574.023435,933.334138 573.488586,934.130405 572.809495,934.809495 C572.130405,935.488585 571.334138,936.023436 570.420673,936.414063 C569.507208,936.804689 568.533659,937 567.5,937 Z M567.5,923.730769 C566.706726,923.730769 565.958538,923.881009 565.255409,924.181489 C564.552281,924.481972 563.939305,924.893627 563.416467,925.416467 C562.893627,925.939305 562.481972,926.552281 562.18149,927.255409 C561.881008,927.958538 561.730769,928.706726 561.730769,929.5 C561.730769,930.293274 561.881008,931.041462 562.18149,931.744591 C562.481972,932.447719 562.893627,933.060695 563.416467,933.583533 C563.939305,934.106373 564.552281,934.518028 565.255409,934.81851 C565.958538,935.118992 566.706726,935.269231 567.5,935.269231 C568.293274,935.269231 569.041462,935.118992 569.744591,934.81851 C570.447719,934.518028 571.060695,934.106373 571.583533,933.583533 C572.106373,933.060695 572.518028,932.447719 572.818511,931.744591 C573.118991,931.041462 573.269231,930.293274 573.269231,929.5 C573.269231,928.706726 573.118991,927.958538 572.818511,927.255409 C572.518028,926.552281 572.106373,925.939305 571.583533,925.416467 C571.060695,924.893627 570.447719,924.481972 569.744591,924.181489 C569.041462,923.881009 568.293274,923.730769 567.5,923.730769 Z M569.807692,930.076923 L568.076923,930.076923 L568.076923,931.807692 C568.076923,931.963944 568.019833,932.099158 567.905648,932.213341 C567.791466,932.327525 567.656252,932.384615 567.5,932.384615 C567.33173,932.384615 567.193511,932.327525 567.085335,932.213341 C566.977162,932.099158 566.923077,931.963944 566.923077,931.807692 L566.923077,930.076923 L565.192308,930.076923 C565.024038,930.076923 564.885818,930.019833 564.777643,929.905648 C564.66947,929.791466 564.615385,929.656252 564.615385,929.5 C564.615385,929.343748 564.66947,929.208534 564.777643,929.094352 C564.885818,928.980167 565.024038,928.923077 565.192308,928.923077 L566.923077,928.923077 L566.923077,927.192308 C566.923077,927.036056 566.977162,926.900842 567.085335,926.786659 C567.193511,926.672475 567.33173,926.615385 567.5,926.615385 C567.656252,926.615385 567.791466,926.672475 567.905648,926.786659 C568.019833,926.900842 568.076923,927.036056 568.076923,927.192308 L568.076923,928.923077 L569.807692,928.923077 C569.963944,928.923077 570.099158,928.980167 570.213341,929.094352 C570.327525,929.208534 570.384615,929.343748 570.384615,929.5 C570.384615,929.656252 570.327525,929.791466 570.213341,929.905648 C570.099158,930.019833 569.963944,930.076923 569.807692,930.076923 Z" id="Page-1"></path>
        </g>
    </g>
</svg>