<svg width="15" height="15" xmlns="http://www.w3.org/2000/svg"><path d="M7.5 15a7.35 7.35 0 0 1-2.92-.586 7.526 7.526 0 0 1-2.39-1.605 7.526 7.526 0 0 1-1.604-2.388A7.35 7.35 0 0 1 0 7.5a7.35 7.35 0 0 1 .586-2.92c.39-.914.925-1.71 1.605-2.39A7.526 7.526 0 0 1 4.579.587 7.35 7.35 0 0 1 7.5 0a7.35 7.35 0 0 1 2.92.586c.914.39 1.71.925 2.39 1.605a7.526 7.526 0 0 1 1.604 2.388A7.35 7.35 0 0 1 15 7.5a7.35 7.35 0 0 1-.586 2.92 7.526 7.526 0 0 1-1.605 2.39 7.526 7.526 0 0 1-2.388 1.604A7.35 7.35 0 0 1 7.5 15zm0-13.27c-.793 0-1.541.151-2.245.451a5.79 5.79 0 0 0-1.839 1.235 5.79 5.79 0 0 0-1.235 1.84c-.3.703-.45 1.45-.45 2.244 0 .793.15 1.541.45 2.245a5.79 5.79 0 0 0 1.235 1.839 5.79 5.79 0 0 0 1.84 1.235c.703.3 1.45.45 2.244.45.793 0 1.541-.15 2.245-.45a5.79 5.79 0 0 0 1.839-1.235 5.79 5.79 0 0 0 1.235-1.84c.3-.703.45-1.45.45-2.244 0-.793-.15-1.541-.45-2.245a5.79 5.79 0 0 0-1.235-1.839 5.79 5.79 0 0 0-1.84-1.235 5.652 5.652 0 0 0-2.244-.45zm2.308 6.347H8.077v1.73a.554.554 0 0 1-.171.406.554.554 0 0 1-.406.172.57.57 0 0 1-.577-.577V8.077h-1.73a.57.57 0 0 1-.577-.577.57.57 0 0 1 .576-.577h1.731v-1.73a.57.57 0 0 1 .577-.578c.156 0 .291.057.406.172.114.114.17.25.17.405v1.731h1.732c.156 0 .291.057.405.171.115.115.172.25.172.406a.554.554 0 0 1-.172.406.554.554 0 0 1-.405.17z" fill="#8AD93A" fill-rule="evenodd"/></svg>