<svg width="32" height="24" xmlns="http://www.w3.org/2000/svg"><g fill="none" fill-rule="evenodd"><path d="M-3-7h38v38H-3z"/><g transform="translate(-1)" fill="#FFF"><circle cx="17" cy="12" r="3"/><path d="M21.523 5.742l1.616-1.63c2.562 2.128 3.846 4.756 3.851 7.882.006 3.127-1.308 5.754-3.94 7.882l-1.635-1.6c2.17-1.623 3.258-3.717 3.265-6.282.007-2.565-1.045-4.649-3.157-6.252z"/><path d="M25.57 1.674L27.168.087c3.728 3.357 5.576 7.329 5.546 11.916-.03 4.587-1.908 8.559-5.636 11.916l-1.612-1.63c3.29-2.959 4.923-6.387 4.9-10.286-.022-3.899-1.62-7.342-4.794-10.33zM12.382 18.268l-1.616 1.629c-2.562-2.128-3.846-4.755-3.851-7.882-.006-3.127 1.308-5.754 3.94-7.882l1.635 1.6c-2.17 1.623-3.258 3.717-3.265 6.282-.007 2.565 1.045 4.65 3.157 6.253z"/><path d="M8.334 22.336l-1.596 1.586c-3.728-3.356-5.576-7.328-5.546-11.915C1.222 7.419 3.1 3.447 6.827.09L8.44 1.72c-3.29 2.96-4.923 6.388-4.9 10.287.022 3.898 1.62 7.341 4.794 10.329z"/></g></g></svg>