<svg width="259" height="98" xmlns="http://www.w3.org/2000/svg"><g fill="#FFF"><path d="M209.88 35.83a13.54 13.54 0 0 0-7.36 2.3c-5.982 4.013-7.798 11.994-4.14 18.2a13.69 13.69 0 0 0 4.23 4.44 13.58 13.58 0 0 0 15.85-.64 13.5 13.5 0 0 0 1.24-1.09 13.59 13.59 0 0 0-9.61-23.21h-.21M38.84 25.98L0 26l.01 11.88H13l.01 36.28 13.13-.01-.01-36.28h12.71zm33.86-.01v26.05c0 8-3 10.92-8.5 10.93-5.5.01-8.5-3-8.5-10.92V25.98H42.57v27.43c0 7 2.08 12.3 6.16 16 4.08 3.7 9.26 5.46 15.48 5.45 6.22-.01 11.4-1.8 15.48-5.46s6.15-9 6.14-16V25.97H72.7zm51.43 30.32c5-2.29 8.22-7.61 8.22-13.76a15.59 15.59 0 0 0-5.02-11.74 17 17 0 0 0-12.23-4.83H93.15v48.17h13.18V59.16h5l9.82 15h15.06l-12.08-17.87zm-10.51-7.67h-7.29V37.84h8.43c2.56 0 4.56 2.07 4.57 5.11 0 3.6-2.14 5.67-5.66 5.67h-.05zm55.71-.71c3.87-1.59 6.15-5 6.15-9.68a11.45 11.45 0 0 0-3.74-8.77 12.84 12.84 0 0 0-9.19-3.52h-22.4v48.17h24.18a14.27 14.27 0 0 0 10.43-4 13.56 13.56 0 0 0 4.21-10.23c0-6.15-3.39-10.64-9.68-12l.04.03zm-16.04-11.36h6.36a4.07 4.07 0 0 1 4.08 4.21 4 4 0 0 1-4.08 4.35h-6.36v-8.56zm8.17 26.74h-8.13v-9.13h8c3 0 5 1.93 5 4.49a4.67 4.67 0 0 1-4.9 4.7l.03-.06z"/><path d="M258.02 48.66a48.4 48.4 0 0 0-84.07-32l15.32 14.07a27.62 27.62 0 1 1 0 37.34l-15.31 14.09c13.587 14.82 34.92 19.698 53.598 12.253 18.676-7.444 30.806-25.66 30.472-45.763"/></g></svg>